<svg 
 xmlns="http://www.w3.org/2000/svg"
 xmlns:xlink="http://www.w3.org/1999/xlink"
 width="64px" height="64px">
<path fill-rule="evenodd"  fill="rgb(255, 255, 255)"
 d="M63.810,15.73 L53.332,48.146 L53.579,48.925 C53.901,49.944 53.808,51.27 53.316,51.975 C52.924,52.731 52.316,53.328 51.569,53.704 C51.566,53.715 51.564,53.725 51.561,53.737 L49.194,61.207 C48.655,62.909 47.76,63.999 45.378,63.999 C44.979,63.999 44.573,63.939 44.173,63.812 L31.999,59.956 L19.825,63.812 C19.425,63.939 19.20,63.999 18.621,63.999 C16.923,63.999 15.344,62.909 14.805,61.207 L0.189,15.73 C0.133,14.55 0.40,12.972 0.451,12.23 C0.944,11.74 1.775,10.374 2.794,10.52 L33.942,0.186 C36.44,0.478 38.297,0.689 38.963,2.792 L39.39,3.33 C39.48,3.35 39.57,3.37 39.66,3.40 L61.205,10.52 C62.223,10.375 63.55,11.75 63.547,12.23 C64.40,12.972 64.133,14.54 63.810,15.73 ZM44.978,61.270 C45.679,61.492 46.430,61.102 46.652,60.402 L48.443,54.748 L36.415,58.558 L44.978,61.270 ZM36.421,3.597 C36.199,2.896 35.448,2.507 34.747,2.729 L34.747,2.729 L3.599,12.594 C3.260,12.702 2.982,12.935 2.818,13.251 C2.654,13.567 2.623,13.929 2.731,14.268 L17.347,60.402 C17.569,61.102 18.320,61.492 19.21,61.270 L31.560,57.299 C31.588,57.289 31.617,57.279 31.646,57.271 L50.168,51.404 C50.508,51.297 50.785,51.64 50.949,50.747 C51.113,50.431 51.145,50.70 51.37,49.730 L36.421,3.597 ZM48.496,32.883 L53.445,17.264 L42.444,13.780 L48.496,32.883 ZM61.181,13.251 C61.17,12.935 60.739,12.701 60.400,12.594 L40.24,6.140 L41.469,10.702 C41.557,10.711 41.645,10.730 41.733,10.757 L54.250,14.722 C54.929,14.937 55.484,15.404 55.812,16.36 C56.140,16.668 56.202,17.390 55.987,18.69 L49.895,37.298 L51.933,43.732 L61.268,14.268 C61.376,13.928 61.345,13.567 61.181,13.251 ZM42.436,44.280 L21.240,50.993 C20.973,51.78 20.702,51.117 20.436,51.117 C19.305,51.118 18.252,50.391 17.892,49.257 L8.12,18.69 C7.797,17.390 7.859,16.668 8.187,16.36 C8.515,15.404 9.70,14.937 9.749,14.722 L30.945,8.9 C32.347,7.564 33.848,8.344 34.292,9.745 L44.173,40.932 C44.388,41.611 44.326,42.334 43.997,42.966 C43.670,43.598 43.115,44.64 42.436,44.280 ZM31.750,10.551 L21.979,13.646 L10.554,17.264 L20.434,48.451 L41.631,41.738 L31.750,10.551 ZM18.109,31.55 C17.712,29.802 17.827,28.468 18.433,27.300 C19.38,26.133 20.63,25.271 21.316,24.874 C22.393,24.533 23.547,24.581 24.579,24.978 C25.194,24.60 26.109,23.355 27.186,23.13 C28.439,22.617 29.773,22.731 30.941,23.336 C32.108,23.942 32.970,24.966 33.367,26.220 C33.783,27.531 33.596,28.947 32.855,30.105 L29.641,35.127 C29.295,35.667 28.768,36.72 28.155,36.266 C27.885,36.352 27.605,36.394 27.325,36.394 C26.971,36.394 26.617,36.326 26.285,36.191 L20.766,33.936 C19.493,33.416 18.525,32.366 18.109,31.55 ZM20.651,30.250 C20.827,30.804 21.236,31.248 21.774,31.467 L27.293,33.722 C27.311,33.729 27.331,33.730 27.350,33.724 C27.369,33.718 27.385,33.706 27.395,33.689 L30.609,28.668 C30.922,28.178 31.1,27.580 30.826,27.26 C30.643,26.451 30.248,25.981 29.713,25.703 C29.178,25.426 28.566,25.373 27.991,25.556 C27.229,25.797 26.663,26.406 26.476,27.185 C26.367,27.640 26.28,28.4 25.582,28.145 C25.137,28.287 24.650,28.184 24.299,27.875 C23.877,27.504 23.350,27.308 22.810,27.308 C22.581,27.308 22.349,27.343 22.122,27.416 C21.547,27.598 21.77,27.993 20.799,28.528 C20.522,29.63 20.469,29.675 20.651,30.250 Z"/>
</svg>