<svg 
 xmlns="http://www.w3.org/2000/svg"
 xmlns:xlink="http://www.w3.org/1999/xlink"
 width="68px" height="66px">
<path fill-rule="evenodd"  fill="rgb(49, 114, 185)"
 d="M50.393,0.4 C40.437,0.211 32.146,7.638 31.899,17.511 L31.775,22.483 C31.741,23.838 32.832,24.972 34.199,25.2 C35.566,25.31 36.712,23.946 36.746,22.590 L36.870,17.619 C37.48,10.470 43.62,4.777 50.270,4.934 C57.477,5.90 63.201,11.38 63.22,18.187 C62.844,25.335 56.830,31.28 49.623,30.872 L18.500,30.197 C8.544,29.981 0.252,37.830 0.6,47.704 C0.239,57.578 7.651,65.779 17.606,65.995 C27.562,66.211 35.853,58.361 36.100,48.488 L36.222,43.571 C36.256,42.215 35.166,41.81 33.799,41.52 C32.432,41.22 31.285,42.108 31.252,43.463 L31.129,48.379 C30.951,55.528 24.937,61.221 17.729,61.65 C10.522,60.908 4.798,54.961 4.977,47.813 C5.155,40.663 11.169,34.971 18.377,35.127 L49.500,35.802 C59.455,36.18 67.747,28.168 67.993,18.294 C68.239,8.420 60.348,0.220 50.393,0.4 Z"/>
</svg>

