<svg 
 xmlns="http://www.w3.org/2000/svg"
 xmlns:xlink="http://www.w3.org/1999/xlink"
 width="86px" height="64px">
<path fill-rule="evenodd"  fill="rgb(49, 114, 185)"
 d="M83.867,30.541 L77.471,30.541 C77.264,30.541 77.68,30.502 76.879,30.447 C76.8,31.945 74.950,33.347 73.693,34.606 L44.971,63.374 C44.553,63.791 44.8,63.999 43.462,63.999 C42.916,63.999 42.371,63.791 41.955,63.373 L13.232,34.605 C12.173,33.545 11.268,32.390 10.493,31.174 C10.319,31.221 10.139,31.253 9.950,31.253 L2.132,31.253 C0.954,31.253 0.0,30.297 0.0,29.117 C0.0,27.938 0.954,26.982 2.132,26.982 L8.472,26.982 C5.986,19.859 7.558,11.620 13.232,5.937 C17.55,2.108 22.137,0.0 27.544,0.0 C32.950,0.0 38.33,2.108 41.856,5.937 L43.463,7.547 L45.70,5.937 C48.892,2.108 53.975,0.0 59.381,0.0 C64.787,0.0 69.871,2.108 73.693,5.937 C77.516,9.766 79.621,14.857 79.621,20.271 C79.621,22.336 79.311,24.352 78.720,26.270 L83.867,26.270 C85.45,26.270 86.0,27.226 86.0,28.405 C86.0,29.585 85.45,30.541 83.867,30.541 ZM16.248,31.585 L43.463,58.844 L70.677,31.585 C71.230,31.32 71.715,30.439 72.170,29.829 L55.736,29.829 C55.179,29.829 54.373,29.572 54.143,29.63 L52.45,24.443 L45.404,43.188 C45.204,43.755 44.669,44.134 44.68,44.136 C44.68,44.136 44.67,44.136 44.66,44.136 C43.466,44.136 42.932,43.760 42.729,43.196 L34.653,20.797 L30.426,29.793 C30.191,30.292 29.989,30.541 29.438,30.541 L15.306,30.541 C15.605,30.898 15.913,31.250 16.248,31.585 ZM70.677,8.957 C67.660,5.935 63.648,4.271 59.381,4.271 C55.113,4.271 51.102,5.935 48.84,8.957 L44.970,12.76 C44.137,12.911 42.788,12.911 41.955,12.76 L38.840,8.957 C35.822,5.935 31.810,4.271 27.544,4.271 C23.276,4.271 19.265,5.935 16.248,8.957 C11.173,14.40 10.235,21.717 13.429,27.762 L28.237,27.762 L33.539,16.478 C33.783,15.958 34.277,15.634 34.891,15.662 C35.466,15.689 35.967,16.60 36.161,16.600 L44.52,38.487 L50.543,20.168 C50.736,19.620 51.242,19.247 51.821,19.222 C52.415,19.205 52.936,19.526 53.176,20.55 L56.352,27.51 L73.832,27.51 C76.595,21.124 75.556,13.844 70.677,8.957 Z"/>
</svg>