<svg 
 xmlns="http://www.w3.org/2000/svg"
 xmlns:xlink="http://www.w3.org/1999/xlink"
 width="65px" height="65px">
<path fill-rule="evenodd"  fill="rgb(49, 114, 185)"
 d="M42.612,30.989 L45.474,28.128 C45.644,28.141 45.814,28.147 45.986,28.147 C47.691,28.147 49.295,27.483 50.501,26.278 L53.227,23.552 C55.717,21.62 55.717,17.11 53.227,14.522 L40.573,1.870 C39.367,0.664 37.763,0.0 36.57,0.0 C34.352,0.0 32.748,0.664 31.542,1.870 L28.816,4.595 C27.442,5.968 26.827,7.818 26.969,9.618 L9.617,26.968 C9.448,26.955 9.277,26.948 9.106,26.948 C7.400,26.948 5.796,27.612 4.590,28.818 L1.865,31.544 C0.624,34.33 0.624,38.84 1.865,40.574 L14.518,53.226 C15.724,54.432 17.328,55.96 19.34,55.96 C20.740,55.96 22.343,54.432 23.550,53.226 L26.275,50.501 C27.481,49.295 28.146,47.691 28.146,45.986 C28.146,45.814 28.139,45.644 28.126,45.475 L30.988,42.612 L51.506,63.129 C52.713,64.335 54.316,64.999 56.22,64.999 C57.728,64.999 59.332,64.335 60.538,63.129 L63.131,60.537 C65.621,58.46 65.621,53.996 63.131,51.506 L42.612,30.989 ZM27.703,39.244 L22.548,44.398 L22.948,44.798 C23.604,45.454 23.604,46.518 22.948,47.174 L20.222,49.899 C19.894,50.227 19.464,50.391 19.34,50.391 C18.604,50.391 18.174,50.227 17.846,49.899 L5.192,37.247 C4.536,36.591 4.536,35.527 5.192,34.871 L7.918,32.145 C8.246,31.817 8.676,31.653 9.106,31.653 C9.536,31.653 9.966,31.817 10.294,32.145 L10.694,32.545 L32.544,10.698 L32.144,10.299 C31.487,9.642 31.487,8.578 32.144,7.922 L34.869,5.197 C35.197,4.869 35.627,4.705 36.58,4.705 C36.488,4.705 36.918,4.869 37.246,5.197 L49.899,17.849 C50.556,18.505 50.556,19.569 49.899,20.225 L47.174,22.950 C46.846,23.279 46.416,23.443 45.986,23.443 C45.556,23.443 45.125,23.279 44.797,22.950 L44.397,22.551 L39.242,27.705 L35.782,31.165 L31.163,35.783 L27.703,39.244 ZM59.804,57.209 L57.211,59.802 C56.882,60.130 56.452,60.294 56.22,60.294 C55.592,60.294 55.162,60.130 54.834,59.802 L34.315,39.286 L39.285,34.316 L59.804,54.833 C60.460,55.489 60.460,56.553 59.804,57.209 Z"/>
</svg>